<svg width="1000" height="118" viewBox="0 0 1000 118" fill="none" xmlns="http://www.w3.org/2000/svg">
<g clip-path="url(#clip0_5_2)">
<path d="M30.3 32.7H9C4 32.7 0 36.8 0 41.7V106.4C0 111.4 4.1 115.4 9 115.4H30.3C35.3 115.4 39.3 111.3 39.3 106.4V41.7C39.4 36.7 35.3 32.7 30.3 32.7Z" fill="url(#paint0_linear_5_2)"/>
<path d="M84.6 0H63.3C58.3 0 54.3 4.1 54.3 9V106.4C54.3 111.4 58.4 115.4 63.3 115.4H84.6C89.6 115.4 93.6 111.3 93.6 106.4V9C93.6 4.1 89.6 0 84.6 0Z" fill="url(#paint1_linear_5_2)"/>
<path d="M138.7 45.1H117.4C112.4 45.1 108.4 49.2 108.4 54.1V106.4C108.4 111.4 112.5 115.4 117.4 115.4H138.7C143.7 115.4 147.7 111.3 147.7 106.4V54.1C147.7 49.1 143.7 45.1 138.7 45.1Z" fill="url(#paint2_linear_5_2)"/>
<path d="M275.7 86.8L286.7 103.3L285.2 104.3C284.1 103.3 283.2 102.8 282.5 102.8C281.8 102.8 279.9 103.7 276.7 105.6C270.1 109.4 264.5 112 260 113.3C255.5 114.6 250.1 115.3 243.8 115.3C231.3 115.3 221.1 112.4 213.1 106.4C208.4 103 204.7 98.7 202 93.6C198.9 87.8 197.3 81.4 197.3 74.3C197.3 64.7 200.1 56.4 205.7 49.4C214.1 38.8 226.8 33.5 243.8 33.5C250 33.5 255.4 34.2 259.9 35.5C264.4 36.8 270 39.4 276.7 43.3C279.9 45.1 281.8 46 282.5 46C283.2 46 284.1 45.5 285.2 44.5L286.7 45.5L275.7 62L274.1 61C274.2 60.4 274.2 59.9 274.2 59.4C274.2 58.3 273.7 57.2 272.8 56.3C271.8 55.3 270.1 54.1 267.7 52.8C260.9 49 253.6 47 246 47C237 47 229.8 49.3 224.4 53.8C218.1 59.1 214.9 66 214.9 74.5C214.9 83 218.1 89.9 224.4 95.2C229.8 99.7 237 102 246 102C253.6 102 260.9 100.1 267.7 96.2C270.2 94.8 271.9 93.6 272.8 92.6C273.8 91.6 274.2 90.6 274.2 89.4C274.2 89 274.2 88.5 274.1 87.9L275.7 86.8Z" fill="white"/>
<path d="M333.6 47.7C343.9 47.7 352.5 50.3 359.4 55.6C367.6 61.9 371.7 70.7 371.7 82C371.7 92.6 367.6 101.1 359.4 107.4C352.6 112.6 344.1 115.3 333.8 115.3C323.5 115.3 314.9 112.7 308.2 107.4C299.9 101.1 295.8 92.4 295.8 81.5C295.8 70.4 299.9 61.8 308.2 55.6C314.9 50.5 323.4 47.8 333.6 47.7ZM333.7 60C327 60 321.6 62.1 317.4 66.4C313.5 70.4 311.6 75.4 311.6 81.5C311.6 87.5 313.5 92.5 317.4 96.5C321.6 100.8 327.1 103 333.8 103C340.5 103 345.9 100.8 350.1 96.5C354 92.5 356 87.6 356 81.7C356 75.3 354 70.2 350.1 66.3C345.8 62.2 340.3 60.1 333.7 60Z" fill="white"/>
<path d="M385.3 108V55C385.3 53.8 385 52.9 384.5 52.3C384 51.7 383 51.2 381.6 50.7V49.1H419.6C427.5 49.1 433.7 50.1 438.3 52.1C444.7 54.9 449.3 59.5 452.1 65.9C454.1 70.4 455.1 75.6 455.1 81.6C455.1 92.7 451.8 101.1 445.2 106.8C442.2 109.3 438.7 111.2 434.7 112.3C430.7 113.4 425.6 114 419.6 114H381.6V112.4C382.9 112.1 383.9 111.6 384.5 110.9C385 110.1 385.3 109.2 385.3 108ZM400.8 102.2H417.3C424.9 102.2 430.4 100.5 433.8 97C437.4 93.4 439.2 88.2 439.2 81.6C439.2 74.9 437.4 69.8 433.8 66.2C432 64.4 429.8 63.1 427.2 62.2C424.6 61.4 421.3 61 417.2 61H400.7V102.2H400.8Z" fill="white"/>
<path d="M484.2 86.4V102.2H525.3C526.5 102.2 527.4 101.9 528 101.4C528.6 100.9 529.1 99.9 529.5 98.5H531.1V117.6H529.5C529.2 116.3 528.7 115.3 528 114.7C527.3 114.1 526.4 113.9 525.2 113.9H465V112.3C466.3 112 467.3 111.5 467.9 110.8C468.5 110.1 468.7 109.2 468.7 108V55C468.7 53.8 468.4 52.9 467.9 52.3C467.4 51.7 466.4 51.2 465 50.7V49.1H523.5C524.7 49.1 525.7 48.8 526.3 48.3C526.9 47.8 527.4 46.8 527.8 45.4H529.4V64.5H527.8C527.4 63.1 526.9 62.1 526.3 61.6C525.7 61.1 524.7 60.8 523.5 60.8H484.2V75H508.6C509.8 75 510.7 74.7 511.3 74.2C511.9 73.7 512.5 72.7 512.9 71.3H514.5V90H512.9C512.5 88.6 512 87.7 511.4 87.1C510.8 86.5 509.8 86.3 508.6 86.3H484.2V86.4Z" fill="white"/>
<path d="M561 86.4V108C561 109.2 561.3 110.1 561.8 110.7C562.3 111.3 563.3 111.9 564.7 112.3V113.9H541.8V112.3C543.2 112 544.1 111.5 544.7 110.8C545.3 110.1 545.5 109.2 545.5 108V55C545.5 53.8 545.2 52.9 544.7 52.3C544.2 51.7 543.2 51.2 541.8 50.7V49.1H599.9C601.1 49.1 602.1 48.8 602.7 48.3C603.3 47.8 603.8 46.8 604.2 45.4H605.8V64.6H604.2C603.8 63.2 603.3 62.3 602.7 61.7C602.1 61.1 601.1 60.9 599.9 60.9H561V75.1H585.4C586.6 75.1 587.6 74.8 588.2 74.3C588.8 73.8 589.3 72.8 589.8 71.4H591.4V90.1H589.8C589.4 88.7 588.9 87.8 588.3 87.2C587.7 86.6 586.7 86.4 585.5 86.4H561Z" fill="#425E9C"/>
<path d="M649.6 47.7C659.9 47.7 668.5 50.3 675.4 55.6C683.6 61.9 687.7 70.8 687.7 82.1C687.7 92.7 683.6 101.2 675.4 107.5C668.6 112.8 660 115.4 649.7 115.4C639.4 115.4 630.8 112.8 624 107.5C615.7 101.2 611.6 92.5 611.6 81.6C611.6 70.5 615.7 61.9 624 55.7C630.9 50.5 639.4 47.8 649.6 47.7ZM649.7 60C643 60 637.6 62.1 633.3 66.4C629.4 70.4 627.4 75.5 627.4 81.5C627.4 87.5 629.4 92.5 633.3 96.6C637.5 100.9 643 103.1 649.7 103.1C656.4 103.1 661.8 100.9 666.1 96.6C670 92.6 672 87.7 672 81.8C672 75.4 670 70.3 666.1 66.4C661.9 62.2 656.4 60.1 649.7 60Z" fill="#425E9C"/>
<path d="M716.9 87.3V108C716.9 109.2 717.2 110.1 717.7 110.7C718.2 111.3 719.2 111.9 720.6 112.3V113.9H697.7V112.3C699.1 112 700 111.5 700.6 110.8C701.2 110.1 701.4 109.2 701.4 108V55C701.4 53.8 701.1 52.9 700.6 52.3C700.1 51.7 699.1 51.2 697.7 50.7V49.1H740.2C745.7 49.1 749.9 49.4 752.8 49.9C755.7 50.5 758.3 51.5 760.6 52.9C765.3 56 767.6 60.9 767.6 67.8C767.6 73.1 766.2 77.2 763.3 80.1C760.4 83 755.8 85.2 749.4 86.5L761.7 103.6C763.9 106.8 765.7 108.9 767.1 110C768.4 111.1 769.9 111.9 771.6 112.2V113.8H744.3V112.2C746.3 111.7 747.3 110.8 747.3 109.6C747.3 108.8 746.7 107.5 745.4 105.7L732.4 87.2H716.9V87.3ZM716.9 75.6H740.3C743.9 75.6 746.5 75.2 748.2 74.4C750.6 73.4 751.8 71.3 751.8 68.2C751.8 65.5 751 63.5 749.3 62.5C747.6 61.4 744.6 60.9 740.4 60.9H717V75.6H716.9Z" fill="#425E9C"/>
<path d="M841.1 90.7L850.9 105L849.6 106C848.7 105.3 847.9 105 847.4 105C846.7 105 845.2 105.7 842.8 107.1C837.5 110.2 832.8 112.3 828.8 113.5C824.7 114.7 820.1 115.3 814.8 115.3C804.2 115.3 795.6 112.8 788.9 107.7C785.1 104.8 782.1 101.2 779.9 96.8C777.5 92.1 776.3 87 776.3 81.5C776.3 73.9 778.5 67.2 782.9 61.3C789.8 52.2 800.4 47.6 814.7 47.6C820 47.6 824.7 48.2 828.8 49.4C832.9 50.6 837.6 52.7 842.8 55.8C845.2 57.2 846.7 57.9 847.4 57.9C847.9 57.9 848.7 57.6 849.6 56.9L850.9 57.9L841.1 72.1L839.8 71.2C839.8 70.7 839.9 70.5 839.9 70.3C839.9 70 840 69.7 840 69.6C840 67.7 837.4 65.6 832.2 63.2C827.3 60.9 822.3 59.8 817.3 59.8C810.3 59.8 804.5 61.6 799.9 65.3C794.7 69.5 792.1 74.8 792.1 81.3C792.1 87.8 794.7 93.2 799.9 97.4C804.5 101.1 810.3 102.9 817.3 102.9C822.8 102.9 828.2 101.5 833.7 98.8C837.9 96.6 840.1 94.7 840.1 93.1C840.1 93 840 92.5 839.9 91.5L841.1 90.7Z" fill="#425E9C"/>
<path d="M879.6 86.4V102.2H920.8C922 102.2 922.9 101.9 923.5 101.4C924.1 100.9 924.6 99.9 925 98.5H926.6V117.7H925C924.7 116.3 924.2 115.4 923.5 114.8C922.8 114.2 921.9 114 920.7 114H860.3V112.4C861.7 112.1 862.6 111.6 863.2 110.9C863.8 110.2 864 109.3 864 108.1V55C864 53.8 863.7 52.9 863.2 52.3C862.7 51.7 861.7 51.2 860.3 50.7V49.1H918.9C920.1 49.1 921.1 48.8 921.7 48.3C922.3 47.8 922.8 46.8 923.2 45.4H924.8V64.6H923.2C922.8 63.2 922.3 62.2 921.7 61.7C921.1 61.2 920.1 60.9 918.9 60.9H879.5V75.1H904C905.2 75.1 906.1 74.8 906.7 74.3C907.3 73.8 907.9 72.8 908.3 71.4H909.9V90.1H908.3C907.9 88.7 907.4 87.8 906.8 87.2C906.2 86.6 905.2 86.4 904 86.4H879.6Z" fill="#425E9C"/>
<path d="M998.8 55L991 70.1L989.6 69.3C989.6 68 989.2 67 988.4 66.3C986.2 64.3 983 62.7 978.7 61.4C974.4 60.1 970.1 59.5 965.7 59.5C962 59.5 958.6 60 955.7 61.1C951.5 62.6 949.4 64.8 949.4 67.6C949.4 69.5 950.4 70.8 952.4 71.6C954.4 72.4 958.3 73 964 73.5L973.1 74.2C981.1 74.8 987.2 76.4 991.3 78.8C993.6 80.2 995.5 82 997 84.4C998.9 87.3 999.8 90.6 999.8 94.2C999.8 100.8 996.8 106 990.9 109.8C985.2 113.5 977.5 115.3 967.9 115.3C958.1 115.3 948.7 113.2 939.6 109.1C939 108.8 938.5 108.7 938 108.7C937.2 108.7 936.5 109.2 935.9 110.1L934.5 109.5L941.2 93.6L942.6 94.2C942.6 94.4 942.6 94.6 942.6 94.7C942.6 95.7 943 96.6 943.8 97.2C945.7 98.9 949.1 100.4 953.8 101.6C958.5 102.9 963.2 103.5 967.9 103.5C972 103.5 975.7 103 978.9 101.9C982.9 100.6 984.9 98.5 984.9 95.5C984.9 93.1 983.5 91.5 980.7 90.6C978.8 90 975.5 89.5 970.7 89L961.6 88.2C956.7 87.8 953 87.3 950.4 86.7C947.8 86.1 945.6 85.2 943.6 84C941.1 82.5 939.2 80.4 937.8 77.7C936.4 75 935.7 72.1 935.7 69C935.7 61.9 938.7 56.5 944.8 52.7C950.4 49.3 957.2 47.6 965.4 47.6C969.8 47.6 974 48.1 977.8 49.1C981.6 50.1 986.2 51.8 991.6 54.3C993.2 55 994.3 55.4 994.9 55.4C995.5 55.4 996.3 55 997.3 54.1L998.8 55Z" fill="#425E9C"/>
</g>
<defs>
<linearGradient id="paint0_linear_5_2" x1="0" y1="74.0834" x2="39.3755" y2="74.0834" gradientUnits="userSpaceOnUse">
<stop stop-color="#F6C43D"/>
<stop offset="1" stop-color="#FCD975"/>
</linearGradient>
<linearGradient id="paint1_linear_5_2" x1="54.2526" y1="57.7461" x2="93.6282" y2="57.7461" gradientUnits="userSpaceOnUse">
<stop stop-color="#1480C4"/>
<stop offset="1" stop-color="#1C99D4"/>
</linearGradient>
<linearGradient id="paint2_linear_5_2" x1="108.368" y1="80.2827" x2="147.744" y2="80.2827" gradientUnits="userSpaceOnUse">
<stop stop-color="#B11E26"/>
<stop offset="1" stop-color="#C21C24"/>
</linearGradient>
<clipPath id="clip0_5_2">
<rect width="1000" height="118" fill="white"/>
</clipPath>
</defs>
</svg>
